<svg width="240" height="63" viewBox="0 0 240 63" fill="none" xmlns="http://www.w3.org/2000/svg">
<path d="M2 31H12.087C17.6098 31 22.087 35.4772 22.087 41V42C22.087 47.5228 17.6098 52 12.087 52H2V31Z" fill="#606868"/>
<path fill-rule="evenodd" clip-rule="evenodd" d="M2 31H12.5C17.7947 31 23 34.1508 23 38.5V41.5V44.5C23 48.8493 17.7947 52 12.5 52H2V31ZM7.47826 35.5V47.5H12.5C14.7692 47.5 16.6087 45.9889 16.6087 44.125V38.875C16.6087 37.011 14.7692 35.5 12.5 35.5H7.47826Z" fill="#606868"/>
<path d="M24 6H43.9333V19.0333C43.9333 24.5378 39.4711 29 33.9667 29C28.4622 29 24 24.5378 24 19.0333V6Z" fill="#606868"/>
<path d="M24 6H28.9833V20.6724C28.9833 22.6434 30.6567 24.2414 32.7208 24.2414H35.2125C37.2767 24.2414 38.95 22.6434 38.95 20.6724V6H43.9333V20.6724C43.9333 25.2716 40.0289 29 35.2125 29H32.7208C27.9044 29 24 25.2716 24 20.6724V6Z" fill="#606868"/>
<path d="M68.7397 45.55L69.2797 51.61C67.7397 52.23 65.8397 52.54 63.5797 52.54C61.4397 52.54 59.6697 52.31 58.2697 51.85C56.8697 51.37 55.7597 50.65 54.9397 49.69C54.1197 48.73 53.5397 47.51 53.1997 46.03C52.8797 44.55 52.7197 42.8 52.7197 40.78C52.7197 38.82 52.8697 37.11 53.1697 35.65C53.4897 34.17 54.0497 32.94 54.8497 31.96C55.6497 30.96 56.7297 30.21 58.0897 29.71C59.4697 29.21 61.2097 28.96 63.3097 28.96C63.7697 28.96 64.2797 28.99 64.8397 29.05C65.4197 29.09 65.9797 29.15 66.5197 29.23C67.0797 29.31 67.5997 29.41 68.0797 29.53C68.5797 29.63 68.9797 29.75 69.2797 29.89L68.1997 35.41C66.5997 35.07 65.1697 34.9 63.9097 34.9C62.6097 34.9 61.7097 35.02 61.2097 35.26C60.7097 35.5 60.4597 35.98 60.4597 36.7V46.12C60.9197 46.22 61.3797 46.3 61.8397 46.36C62.3197 46.4 62.8097 46.42 63.3097 46.42C65.3097 46.42 67.1197 46.13 68.7397 45.55ZM80.968 48.43L80.158 52H72.568L78.388 29.5H89.518L95.338 52H87.748L86.908 48.43H80.968ZM84.148 36.4H83.758L82.288 42.7H85.588L84.148 36.4ZM114.132 46.24V52H99.7313V29.5H106.932V46.24H114.132ZM133.509 38.29V43.51H126.309V46.24H135.129V52H119.109V29.5H134.949L134.049 35.26H126.309V38.29H133.509ZM161.161 52H154.381L148.891 44.02C148.791 43.88 148.711 43.67 148.651 43.39C148.591 43.11 148.551 42.74 148.531 42.28H148.381V52H141.181V29.5H147.961L153.451 37.48C153.551 37.62 153.631 37.83 153.691 38.11C153.751 38.39 153.791 38.76 153.811 39.22H153.961V29.5H161.161V52ZM177.845 52H167.765V29.5H177.845C179.865 29.5 181.555 29.71 182.915 30.13C184.275 30.53 185.365 31.18 186.185 32.08C187.005 32.98 187.585 34.14 187.925 35.56C188.285 36.98 188.465 38.7 188.465 40.72C188.465 42.74 188.285 44.47 187.925 45.91C187.585 47.33 187.005 48.49 186.185 49.39C185.365 50.29 184.275 50.95 182.915 51.37C181.555 51.79 179.865 52 177.845 52ZM177.965 35.26H174.965V46.24H177.965C178.965 46.24 179.675 46.13 180.095 45.91C180.535 45.67 180.755 45.14 180.755 44.32V37.18C180.755 36.36 180.535 35.84 180.095 35.62C179.675 35.38 178.965 35.26 177.965 35.26ZM200.177 48.43L199.367 52H191.777L197.597 29.5H208.727L214.547 52H206.957L206.117 48.43H200.177ZM203.357 36.4H202.967L201.497 42.7H204.797L203.357 36.4ZM234.661 44.5L238.561 52H230.641L227.701 45.31H226.141V52H218.941V29.5H230.281C235.441 29.5 238.021 32.13 238.021 37.39C238.021 40.99 236.901 43.36 234.661 44.5ZM227.791 35.26H226.141V39.76H227.791C228.671 39.76 229.301 39.67 229.681 39.49C230.081 39.31 230.281 38.9 230.281 38.26V36.76C230.281 36.12 230.081 35.71 229.681 35.53C229.301 35.35 228.671 35.26 227.791 35.26Z" fill="#606868"/>
<path d="M24.2598 30.5H31.4598V47.39H34.0098C34.9298 47.39 35.5498 47.27 35.8698 47.03C36.2098 46.79 36.3798 46.27 36.3798 45.47V30.5H43.5798V43.13C43.5798 45.05 43.4498 46.67 43.1898 47.99C42.9498 49.31 42.4698 50.39 41.7498 51.23C41.0498 52.05 40.0698 52.64 38.8098 53C37.5498 53.36 35.9198 53.54 33.9198 53.54C31.9198 53.54 30.2898 53.36 29.0298 53C27.7698 52.64 26.7798 52.05 26.0598 51.23C25.3598 50.41 24.8798 49.34 24.6198 48.02C24.3798 46.68 24.2598 45.05 24.2598 43.13V30.5Z" fill="#606868"/>
<path d="M11.8798 28H1.7998V5.5H11.8798C13.8998 5.5 15.5898 5.71 16.9498 6.13C18.3098 6.53 19.3998 7.18 20.2198 8.08C21.0398 8.98 21.6198 10.14 21.9598 11.56C22.3198 12.98 22.4998 14.7 22.4998 16.72C22.4998 18.74 22.3198 20.47 21.9598 21.91C21.6198 23.33 21.0398 24.49 20.2198 25.39C19.3998 26.29 18.3098 26.95 16.9498 27.37C15.5898 27.79 13.8998 28 11.8798 28ZM11.9998 11.26H8.9998V22.24H11.9998C12.9998 22.24 13.7098 22.13 14.1298 21.91C14.5698 21.67 14.7898 21.14 14.7898 20.32V13.18C14.7898 12.36 14.5698 11.84 14.1298 11.62C13.7098 11.38 12.9998 11.26 11.9998 11.26Z" fill="#606868"/>
</svg>
