<svg width="17" height="21" viewBox="0 0 17 21" fill="none" xmlns="http://www.w3.org/2000/svg">
<path d="M8.42676 0.0512695C5.67406 0.0512695 3.42676 2.29857 3.42676 5.05127V8.05127C1.5432 8.05127 0.426758 9.51074 0.426758 10.8833V17.2172C0.426758 18.7696 1.70837 20.0512 3.26074 20.0512H13.5928C15.1451 20.0512 16.4267 18.7696 16.4267 17.2172V10.8833C16.4267 9.33093 15.1451 8.05127 13.5928 8.05127H4.92676V5.05127C4.92676 2.96837 6.62707 1.55127 8.42676 1.55127C10.1107 1.55127 11.9995 2.82064 11.9995 4.49994C11.9995 5.05222 11.8745 6.05127 12.4267 6.05127C12.979 6.05127 13.4995 5.55222 13.4995 4.99994C13.4995 2.24724 11.1794 0.0512695 8.42676 0.0512695ZM2.92676 9.55127H13.9267C14.4057 9.55127 14.9267 10.4043 14.9267 10.8833V17.2172C14.9267 17.6962 14.4057 18.5512 13.9267 18.5512H2.92676C2.4478 18.5512 1.92676 17.6962 1.92676 17.2172V10.8833C1.92676 10.4043 2.4478 9.55127 2.92676 9.55127Z" fill="#606868"/>
</svg>
