<svg width="14" height="14" viewBox="0 0 14 14" fill="none" xmlns="http://www.w3.org/2000/svg">
<path d="M12.6875 1.75H9.62508V1.3125C9.62508 0.964403 9.4868 0.630564 9.24066 0.384422C8.99453 0.138281 8.66069 0 8.3126 0L5.68765 0C5.33956 0 5.00573 0.138281 4.75959 0.384422C4.51345 0.630564 4.37518 0.964403 4.37518 1.3125V1.75H1.31273C0.964642 1.75 0.630809 1.88828 0.384672 2.13442C0.138535 2.38056 0.00025658 2.7144 0.00025658 3.0625V6.5625C-0.00312665 6.66127 0.027031 6.75828 0.0858177 6.83772C0.144604 6.91716 0.228557 6.97436 0.324001 7H0.437749V10.9375C0.437749 11.2856 0.576027 11.6194 0.822164 11.8656C1.0683 12.1117 1.40213 12.25 1.75022 12.25H3.50019C3.9077 12.7934 4.43612 13.2344 5.0436 13.5381C5.65109 13.8419 6.32094 14 7.00013 14C7.67931 14 8.34917 13.8419 8.95665 13.5381C9.56413 13.2344 10.0926 12.7934 10.5001 12.25H12.25C12.5981 12.25 12.932 12.1117 13.1781 11.8656C13.4242 11.6194 13.5625 11.2856 13.5625 10.9375V7L13.6763 6.97375C13.7673 6.94926 13.8481 6.89599 13.9064 6.82188C13.9647 6.74777 13.9976 6.65679 14 6.5625V3.0625C14 2.7144 13.8617 2.38056 13.6156 2.13442C13.3694 1.88828 13.0356 1.75 12.6875 1.75ZM5.25016 1.3125C5.25016 1.19647 5.29625 1.08519 5.3783 1.00314C5.46034 0.921094 5.57162 0.875 5.68765 0.875H8.3126C8.42863 0.875 8.53991 0.921094 8.62196 1.00314C8.704 1.08519 8.7501 1.19647 8.7501 1.3125V1.75H5.25016V1.3125ZM0.875241 3.0625C0.875241 2.94647 0.921333 2.83519 1.00338 2.75314C1.08542 2.67109 1.1967 2.625 1.31273 2.625H12.6875C12.8036 2.625 12.9148 2.67109 12.9969 2.75314C13.0789 2.83519 13.125 2.94647 13.125 3.0625V6.22563L10.4476 6.93875C10.0384 6.41504 9.51527 5.99143 8.91793 5.70009C8.32059 5.40875 7.66473 5.25733 7.00013 5.25733C6.33553 5.25733 5.67966 5.40875 5.08232 5.70009C4.48498 5.99143 3.96187 6.41504 3.55269 6.93875L0.875241 6.22563V3.0625ZM1.75022 11.375C1.63419 11.375 1.52292 11.3289 1.44087 11.2469C1.35883 11.1648 1.31273 11.0535 1.31273 10.9375V7.24937L3.0627 7.71312C2.78455 8.28142 2.63415 8.90371 2.62205 9.53631C2.60996 10.1689 2.73647 10.7965 2.9927 11.375H1.75022ZM7.00013 13.125C6.30791 13.125 5.63123 12.9197 5.05567 12.5351C4.48011 12.1506 4.03151 11.6039 3.76661 10.9644C3.50171 10.3249 3.4324 9.62112 3.56744 8.94218C3.70249 8.26325 4.03582 7.63961 4.5253 7.15013C5.01477 6.66064 5.6384 6.3273 6.31732 6.19225C6.99625 6.0572 7.69997 6.12651 8.3395 6.39142C8.97902 6.65633 9.52564 7.10493 9.91022 7.6805C10.2948 8.25608 10.5001 8.93277 10.5001 9.625C10.5001 10.5533 10.1313 11.4435 9.47496 12.0999C8.81859 12.7563 7.92837 13.125 7.00013 13.125ZM12.6875 10.9375C12.6875 11.0535 12.6414 11.1648 12.5594 11.2469C12.4773 11.3289 12.3661 11.375 12.25 11.375H11.0076C11.2638 10.7965 11.3903 10.1689 11.3782 9.53631C11.3661 8.90371 11.2157 8.28142 10.9376 7.71312L12.6875 7.24937V10.9375Z" fill="black"/>
<path d="M6.99998 8.3125H7.87496C7.99099 8.3125 8.10227 8.26641 8.18431 8.18436C8.26636 8.10231 8.31245 7.99103 8.31245 7.875C8.31245 7.75897 8.26636 7.64769 8.18431 7.56564C8.10227 7.48359 7.99099 7.4375 7.87496 7.4375H7.43747C7.43747 7.32147 7.39138 7.21019 7.30933 7.12814C7.22728 7.04609 7.11601 7 6.99998 7C6.88395 7 6.77267 7.04609 6.69062 7.12814C6.60858 7.21019 6.56248 7.32147 6.56248 7.4375V7.51625C6.27314 7.62124 6.0299 7.82459 5.87528 8.09075C5.72067 8.3569 5.66451 8.66893 5.71664 8.9723C5.76876 9.27566 5.92585 9.55105 6.16043 9.75034C6.39502 9.94962 6.69218 10.0601 6.99998 10.0625C7.11601 10.0625 7.22728 10.1086 7.30933 10.1906C7.39138 10.2727 7.43747 10.384 7.43747 10.5C7.43747 10.616 7.39138 10.7273 7.30933 10.8094C7.22728 10.8914 7.11601 10.9375 6.99998 10.9375H6.12499C6.00896 10.9375 5.89768 10.9836 5.81564 11.0656C5.73359 11.1477 5.6875 11.259 5.6875 11.375C5.6875 11.491 5.73359 11.6023 5.81564 11.6844C5.89768 11.7664 6.00896 11.8125 6.12499 11.8125H6.56248C6.56248 11.9285 6.60858 12.0398 6.69062 12.1219C6.77267 12.2039 6.88395 12.25 6.99998 12.25C7.11601 12.25 7.22728 12.2039 7.30933 12.1219C7.39138 12.0398 7.43747 11.9285 7.43747 11.8125V11.7337C7.72681 11.6288 7.97005 11.4254 8.12467 11.1593C8.27928 10.8931 8.33544 10.5811 8.28331 10.2777C8.23119 9.97434 8.07411 9.69895 7.83952 9.49966C7.60493 9.30038 7.30777 9.18989 6.99998 9.1875C6.88395 9.1875 6.77267 9.14141 6.69062 9.05936C6.60858 8.97731 6.56248 8.86603 6.56248 8.75C6.56248 8.63397 6.60858 8.52269 6.69062 8.44064C6.77267 8.35859 6.88395 8.3125 6.99998 8.3125Z" fill="black"/>
</svg>
