<svg width="130" height="130" viewBox="0 0 130 130" fill="none" xmlns="http://www.w3.org/2000/svg">
<path d="M98.9393 126.409H49.7004H3.29157C1.49837 126.409 0 126.16 0 124.177V3.59052C0 1.60733 1.45492 0 3.24812 0H74.5909C75.5008 0.00692816 76.3402 0.405298 76.9557 1.12929L106.934 32.0739C107.663 32.7321 108.126 33.7332 108.126 34.8538V47.638C120.215 47.6692 130 58.5152 130 71.8849C130 81.3955 124.987 89.9847 117.211 93.932V126.409C117.211 128.393 115.758 130 113.965 130H102.186C100.828 130 99.4232 127.719 98.9393 126.409ZM112.429 96.1317C114.14 96.1317 108.931 96.1317 108.034 96.1317C107.163 96.1248 105.137 96.0728 104.269 95.9568V125.914H112.429V96.1317ZM98.9393 93.932C91.1635 89.9847 86.1504 81.3955 86.1504 71.8849C86.1504 61.2224 92.4524 51.8192 101.631 48.7015V38.4444H74.5909C72.7977 38.4444 71.3443 36.837 71.3443 34.8538V5.21387H37.4607H5.33152V63.3078V120.586H98.9393V93.932ZM91.5193 71.2041C91.5193 80.6316 99.5156 90.4385 108.034 90.4385C116.556 90.4385 125.178 81.3089 125.178 71.8849C125.178 62.4591 116.362 53.1555 107.839 53.1555C99.3192 53.1555 91.5193 61.7818 91.5193 71.2041ZM18.2233 81.3564C13.9525 81.3564 13.9525 75.7993 18.2233 75.7993H80.481C84.7518 75.7993 84.7518 81.3564 80.481 81.3564H49.7004H18.2233ZM18.2233 95.9568C13.9525 95.9568 13.9525 90.4385 18.2233 90.4385H80.481C84.7518 90.4385 84.7518 96.1317 80.481 96.1317L49.7004 95.9568H18.2233ZM18.2233 66.1279C13.9525 66.1279 13.9525 61.1601 18.2233 61.1601H80.481C84.7518 61.1601 84.7518 66.1279 80.481 66.1279H49.7004H18.2233ZM17.5499 16.7471H44.4714C46.2646 16.7471 47.7195 18.3562 47.7195 20.3376V50.1131C47.7195 52.0963 46.2646 53.7036 44.4714 53.7036H17.5499C15.7567 53.7036 14.3033 52.0963 14.3033 50.1131V20.3376C14.3033 18.3562 15.7567 16.7471 17.5499 16.7471ZM43.0706 21.5704H19.1012V48.7015H29.8109H43.0706V21.5704ZM101.631 34.8538L75.7097 6.90593V34.8538H101.631Z" fill="white"/>
</svg>
