<svg width="17" height="21" viewBox="0 0 17 21" fill="none" xmlns="http://www.w3.org/2000/svg">
<path d="M8.42725 0.0513306C5.67455 0.0513306 3.42725 2.29863 3.42725 5.05133V8.05133C1.54369 8.05133 0.427246 9.5108 0.427246 10.8834V17.2173C0.427246 18.7697 1.70886 20.0513 3.26123 20.0513H13.5933C15.1456 20.0513 16.4272 18.7697 16.4272 17.2173V10.8834C16.4272 9.33099 15.1456 8.05133 13.5933 8.05133H4.92725V5.05133C4.92725 2.96843 6.62756 1.55133 8.42725 1.55133C10.1112 1.55133 12 2.8207 12 4.5C12 5.05228 11.875 6.05133 12.4272 6.05133C12.9795 6.05133 13.5 5.55228 13.5 5C13.5 2.2473 11.1799 0.0513306 8.42725 0.0513306ZM2.92725 9.55133H13.9272C14.4062 9.55133 14.9272 10.4044 14.9272 10.8834V17.2173C14.9272 17.6963 14.4062 18.5513 13.9272 18.5513H2.92725C2.44829 18.5513 1.92725 17.6963 1.92725 17.2173V10.8834C1.92725 10.4044 2.44829 9.55133 2.92725 9.55133Z" fill="#3579C2"/>
</svg>
