<svg width="113" height="112" viewBox="0 0 113 112" fill="none" xmlns="http://www.w3.org/2000/svg">
<path d="M58.0938 69.6719H54.8438C53.0156 69.6719 51.5938 71.2969 51.5938 73.0234V75.1563C51.5938 76.4766 52.3047 77.5938 53.4219 78.1016L52 96.0781H60.9375L59.7188 78.1016C60.8359 77.5938 61.75 76.4766 61.75 75.1563V73.0234C61.75 71.2969 59.8203 69.6719 58.0938 69.6719Z" fill="white"/>
<path d="M104.203 75.1562C97.5 73.3281 74.0391 67.4375 74.0391 67.4375C74.0391 67.4375 67.9453 99.125 60.7344 99.125H51.7969C45.2969 99.125 40.1172 70.7891 38.3906 67.6406C38.3906 67.6406 14.9297 73.4297 8.22656 75.2578C1.52344 77.0859 0 92.3203 0 103.187C0 103.187 14.625 111.82 56.2656 111.82C97.8047 111.82 112.43 103.187 112.43 103.187C112.43 92.3203 111.008 76.9844 104.203 75.1562ZM4.16406 100.547C4.46875 85.9219 7.41406 79.625 9.34375 79.1172C14.3203 77.7969 28.8438 74.1406 35.75 72.4141C35.9531 73.3281 36.2578 74.2422 36.4609 75.1562C40.8281 91.5078 44.3828 103.086 51.7969 103.086H60.7344C66.0156 103.086 69.9766 97.5 74.0391 84.3984C75.4609 79.9297 76.4766 75.4609 77.1875 72.3125C84.1953 74.1406 98.3125 77.6953 103.188 79.0156C105.117 79.5234 108.063 85.8203 108.367 100.445C103.188 102.578 87.6484 107.555 56.3672 107.555C24.9844 107.656 9.34375 102.68 4.16406 100.547Z" fill="white"/>
<path d="M78.8125 16.7578C75.6641 2.23438 61.75 0 55.0469 0C46.8203 0 33.5156 1.82813 31.2813 19.0938C29.5547 32.3984 35.75 49.5625 40.2188 55.3516C45.2969 61.75 49.7656 65 56.0625 65C61.8516 65 65.8125 62.1562 71.1953 54.4375C76.0703 47.3281 81.3516 29.0469 78.8125 16.7578ZM67.8438 52.1016C62.7656 59.5156 59.8203 60.8359 56.0625 60.8359C51.4922 60.8359 48.0391 58.6016 43.3672 52.7109C39.8125 48.1406 33.6172 32.1953 35.2422 19.5C36.6641 8.73438 42.7578 3.96094 54.9453 3.96094C70.1797 3.96094 73.836 13.5078 74.75 17.5703C77.1875 28.7422 72.211 45.8047 67.8438 52.1016Z" fill="white"/>
</svg>
