<svg width="18" height="18" viewBox="0 0 18 18" fill="none" xmlns="http://www.w3.org/2000/svg">
<path d="M10.9729 9.47083C12.3625 8.65625 13.3208 7.17083 13.3208 5.44583C13.3208 2.85833 11.2125 0.75 8.625 0.75C6.0375 0.75 3.92917 2.85833 3.92917 5.44583C3.92917 7.17083 4.8875 8.65625 6.27708 9.47083C2.73125 10.4292 0.0958333 13.6396 0 17.5208C0 17.6646 0.0479168 17.7604 0.14375 17.8563C0.239583 17.9521 0.335417 18 0.479167 18H16.7708C16.9146 18 17.0104 17.9521 17.1063 17.8563C17.2021 17.7604 17.25 17.6167 17.25 17.5208C17.1542 13.6396 14.5187 10.4292 10.9729 9.47083ZM5 5.5C5 3.43958 6.56458 2 8.625 2C10.6854 2 12.4206 3.38542 12.4206 5.44583C12.4206 7.50625 10.6854 8.88854 8.625 8.88854C6.56458 8.84062 5 7.5125 5 5.5ZM1.5 17C1.83542 13.0708 4.475 10.5 8.5 10.5C12.525 10.5 15.6646 13.0708 16 17H1.5Z" fill="#053B75"/>
</svg>
