<svg width="16" height="20" viewBox="0 0 16 20" fill="none" xmlns="http://www.w3.org/2000/svg">
<path d="M8 0C5.2473 0 3 2.2473 3 5V8C1.11645 8 0 9.45947 0 10.832V17.166C0 18.7184 1.28161 20 2.83398 20H13.166C14.7184 20 16 18.7184 16 17.166V10.832C16 9.27966 14.7184 8 13.166 8H4V4.94867C4 2.86577 6.20031 1 8 1C9.68392 1 12 2.3207 12 4C12 4.55228 11.9477 6 12.5 6C13.0523 6 13.0728 5.50095 13.0728 4.94867C13.0728 2.19597 10.7527 0 8 0ZM2.5 9H13.5C14.5 9 15 10.3531 15 10.832V17.166C15 18.5 13.979 19 13.5 19H2.5C2.02104 19 1 17.9789 1 17.5L1.07275 10.832C1.07275 10.3531 1.5 9 2.5 9Z" fill="#053B75"/>
</svg>
