<svg width="240" height="63" viewBox="0 0 240 63" fill="none" xmlns="http://www.w3.org/2000/svg">
<path d="M2 31H12.087C17.6098 31 22.087 35.4772 22.087 41V42C22.087 47.5228 17.6098 52 12.087 52H2V31Z" fill="#3579C2"/>
<path fill-rule="evenodd" clip-rule="evenodd" d="M2 31H12.5C17.7947 31 23 34.1508 23 38.5V41.5V44.5C23 48.8492 17.7947 52 12.5 52H2V31ZM7.47826 35.5V47.5H12.5C14.7692 47.5 16.6087 45.9889 16.6087 44.125V38.875C16.6087 37.011 14.7692 35.5 12.5 35.5H7.47826Z" fill="#3579C2"/>
<path d="M24 6H43.9333V19.0333C43.9333 24.5378 39.4711 29 33.9667 29V29C28.4622 29 24 24.5378 24 19.0333V6Z" fill="#3579C2"/>
<path d="M24 6H28.9833V20.6724C28.9833 22.6434 30.6567 24.2414 32.7208 24.2414H35.2125C37.2767 24.2414 38.95 22.6434 38.95 20.6724V6H43.9333V20.6724C43.9333 25.2716 40.0289 29 35.2125 29H32.7208C27.9044 29 24 25.2716 24 20.6724V6Z" fill="#3579C2"/>
<path d="M68.74 45.55L69.28 51.61C67.74 52.23 65.84 52.54 63.58 52.54C61.44 52.54 59.67 52.31 58.27 51.85C56.87 51.37 55.76 50.65 54.94 49.69C54.12 48.73 53.54 47.51 53.2 46.03C52.88 44.55 52.72 42.8 52.72 40.78C52.72 38.82 52.87 37.11 53.17 35.65C53.49 34.17 54.05 32.94 54.85 31.96C55.65 30.96 56.73 30.21 58.09 29.71C59.47 29.21 61.21 28.96 63.31 28.96C63.77 28.96 64.28 28.99 64.84 29.05C65.42 29.09 65.98 29.15 66.52 29.23C67.08 29.31 67.6 29.41 68.08 29.53C68.58 29.63 68.98 29.75 69.28 29.89L68.2 35.41C66.6 35.07 65.17 34.9 63.91 34.9C62.61 34.9 61.71 35.02 61.21 35.26C60.71 35.5 60.46 35.98 60.46 36.7V46.12C60.92 46.22 61.38 46.3 61.84 46.36C62.32 46.4 62.81 46.42 63.31 46.42C65.31 46.42 67.12 46.13 68.74 45.55ZM80.9683 48.43L80.1583 52H72.5683L78.3883 29.5H89.5183L95.3383 52H87.7483L86.9083 48.43H80.9683ZM84.1483 36.4H83.7583L82.2883 42.7H85.5883L84.1483 36.4ZM114.132 46.24V52H99.7316V29.5H106.932V46.24H114.132ZM133.509 38.29V43.51H126.309V46.24H135.129V52H119.109V29.5H134.949L134.049 35.26H126.309V38.29H133.509ZM161.161 52H154.381L148.891 44.02C148.791 43.88 148.711 43.67 148.651 43.39C148.591 43.11 148.551 42.74 148.531 42.28H148.381V52H141.181V29.5H147.961L153.451 37.48C153.551 37.62 153.631 37.83 153.691 38.11C153.751 38.39 153.791 38.76 153.811 39.22H153.961V29.5H161.161V52ZM177.845 52H167.765V29.5H177.845C179.865 29.5 181.555 29.71 182.915 30.13C184.275 30.53 185.365 31.18 186.185 32.08C187.005 32.98 187.585 34.14 187.925 35.56C188.285 36.98 188.465 38.7 188.465 40.72C188.465 42.74 188.285 44.47 187.925 45.91C187.585 47.33 187.005 48.49 186.185 49.39C185.365 50.29 184.275 50.95 182.915 51.37C181.555 51.79 179.865 52 177.845 52ZM177.965 35.26H174.965V46.24H177.965C178.965 46.24 179.675 46.13 180.095 45.91C180.535 45.67 180.755 45.14 180.755 44.32V37.18C180.755 36.36 180.535 35.84 180.095 35.62C179.675 35.38 178.965 35.26 177.965 35.26ZM200.177 48.43L199.367 52H191.777L197.597 29.5H208.727L214.547 52H206.957L206.117 48.43H200.177ZM203.357 36.4H202.967L201.497 42.7H204.797L203.357 36.4ZM234.661 44.5L238.561 52H230.641L227.701 45.31H226.141V52H218.941V29.5H230.281C235.441 29.5 238.021 32.13 238.021 37.39C238.021 40.99 236.901 43.36 234.661 44.5ZM227.791 35.26H226.141V39.76H227.791C228.671 39.76 229.301 39.67 229.681 39.49C230.081 39.31 230.281 38.9 230.281 38.26V36.76C230.281 36.12 230.081 35.71 229.681 35.53C229.301 35.35 228.671 35.26 227.791 35.26Z" fill="#3579C2"/>
<path d="M24.26 30.5H31.46V47.39H34.01C34.93 47.39 35.55 47.27 35.87 47.03C36.21 46.79 36.38 46.27 36.38 45.47V30.5H43.58V43.13C43.58 45.05 43.45 46.67 43.19 47.99C42.95 49.31 42.47 50.39 41.75 51.23C41.05 52.05 40.07 52.64 38.81 53C37.55 53.36 35.92 53.54 33.92 53.54C31.92 53.54 30.29 53.36 29.03 53C27.77 52.64 26.78 52.05 26.06 51.23C25.36 50.41 24.88 49.34 24.62 48.02C24.38 46.68 24.26 45.05 24.26 43.13V30.5Z" fill="#3579C2"/>
<path d="M11.88 28H1.8V5.5H11.88C13.9 5.5 15.59 5.71 16.95 6.13C18.31 6.53 19.4 7.18 20.22 8.08C21.04 8.98 21.62 10.14 21.96 11.56C22.32 12.98 22.5 14.7 22.5 16.72C22.5 18.74 22.32 20.47 21.96 21.91C21.62 23.33 21.04 24.49 20.22 25.39C19.4 26.29 18.31 26.95 16.95 27.37C15.59 27.79 13.9 28 11.88 28ZM12 11.26H9V22.24H12C13 22.24 13.71 22.13 14.13 21.91C14.57 21.67 14.79 21.14 14.79 20.32V13.18C14.79 12.36 14.57 11.84 14.13 11.62C13.71 11.38 13 11.26 12 11.26Z" fill="#3579C2"/>
</svg>
