<svg width="130" height="130" viewBox="0 0 130 130" fill="none" xmlns="http://www.w3.org/2000/svg">
<path d="M65.4063 78.2031H62.1563C60.3281 78.2031 58.9062 79.8281 58.9062 81.5547V83.6875C58.9062 85.0078 59.6172 86.125 60.7344 86.6328L59.3125 104.609H68.25L67.0312 86.6328C68.1484 86.125 69.0625 85.0078 69.0625 83.6875V81.5547C69.0625 79.8281 67.1328 78.2031 65.4063 78.2031Z" fill="#053B75"/>
<path d="M111.516 83.6875C104.813 81.8594 81.3516 75.9688 81.3516 75.9688C81.3516 75.9688 75.2578 107.656 68.0469 107.656H59.1094C52.6094 107.656 47.4297 79.3203 45.7031 76.1719C45.7031 76.1719 22.2422 81.9609 15.5391 83.7891C8.83594 85.6172 7.3125 100.852 7.3125 111.719C7.3125 111.719 21.9375 120.352 63.5781 120.352C105.117 120.352 119.742 111.719 119.742 111.719C119.742 100.852 118.32 85.5156 111.516 83.6875ZM11.4766 109.078C11.7813 94.4531 14.7266 88.1562 16.6562 87.6484C21.6328 86.3281 36.1563 82.6719 43.0625 80.9453C43.2656 81.8594 43.5703 82.7734 43.7734 83.6875C48.1406 100.039 51.6953 111.617 59.1094 111.617H68.0469C73.3281 111.617 77.2891 106.031 81.3516 92.9297C82.7734 88.4609 83.7891 83.9922 84.5 80.8437C91.5078 82.6719 105.625 86.2266 110.5 87.5469C112.43 88.0547 115.375 94.3516 115.68 108.977C110.5 111.109 94.9609 116.086 63.6797 116.086C32.2969 116.188 16.6563 111.211 11.4766 109.078Z" fill="white"/>
<path d="M86.125 25.2891C82.9766 10.7656 69.0625 8.53125 62.3594 8.53125C54.1328 8.53125 40.8281 10.3594 38.5938 27.625C36.8672 40.9297 43.0625 58.0938 47.5313 63.8828C52.6094 70.2812 57.0781 73.5312 63.375 73.5312C69.1641 73.5312 73.125 70.6875 78.5078 62.9688C83.3828 55.8594 88.6641 37.5781 86.125 25.2891ZM75.1563 60.6328C70.0781 68.0469 67.1328 69.3672 63.375 69.3672C58.8047 69.3672 55.3516 67.1328 50.6797 61.2422C47.125 56.6719 40.9297 40.7266 42.5547 28.0312C43.9766 17.2656 50.0703 12.4922 62.2578 12.4922C77.4922 12.4922 81.1485 22.0391 82.0625 26.1016C84.5 37.2734 79.5235 54.3359 75.1563 60.6328Z" fill="white"/>
</svg>
