<svg width="130" height="130" viewBox="0 0 130 130" fill="none" xmlns="http://www.w3.org/2000/svg">
<path d="M98.2746 119.439H50H4.5C2.74192 119.439 1.27288 119.218 1.27288 117.46V10.5609C1.27288 8.80282 2.69931 7.37793 4.4574 7.37793H74.4031C75.2952 7.38407 76.1182 7.73722 76.7216 8.37904L106.113 35.8113C106.827 36.3948 107.282 37.2823 107.282 38.2757V49.6088C119.134 49.6365 128.727 59.2514 128.727 71.1035C128.727 79.5346 123.812 87.1489 116.189 90.6482V119.439C116.189 121.197 114.764 122.622 113.006 122.622H101.458C100.126 122.622 98.7491 120.6 98.2746 119.439ZM111.5 92.5982C113.177 92.5982 108.071 92.5982 107.191 92.5982C106.337 92.5921 104.351 92.546 103.5 92.4431V119H111.5V92.5982ZM98.2746 90.6482C90.6511 87.1489 85.7362 79.5346 85.7362 71.1035C85.7362 61.6513 91.9148 53.3154 100.914 50.5516V41.4587H74.4031C72.645 41.4587 71.2201 40.0338 71.2201 38.2757V12H38H6.5V63.5V114.277H98.2746V90.6482ZM91 70.5C91 78.8574 98.8397 87.5512 107.191 87.5512C115.547 87.5512 124 79.4579 124 71.1035C124 62.7476 115.356 54.5 107 54.5C98.6472 54.5 91 62.1472 91 70.5ZM19.1393 79.5C14.9522 79.5 14.9522 74.5736 19.1393 74.5736H80.1779C84.365 74.5736 84.365 79.5 80.1779 79.5H50H19.1393ZM19.1393 92.4431C14.9522 92.4431 14.9522 87.5512 19.1393 87.5512H80.1779C84.365 87.5512 84.365 92.5982 80.1779 92.5982L50 92.4431H19.1393ZM19.1393 66C14.9522 66 14.9522 61.596 19.1393 61.596H80.1779C84.365 61.596 84.365 66 80.1779 66H50H19.1393ZM18.4791 22.2241H44.8734C46.6315 22.2241 48.0579 23.6506 48.0579 25.4071V51.803C48.0579 53.5611 46.6315 54.9859 44.8734 54.9859H18.4791C16.721 54.9859 15.2961 53.5611 15.2961 51.803V25.4071C15.2961 23.6506 16.721 22.2241 18.4791 22.2241ZM43.5 26.5H20V50.5516H30.5H43.5V26.5ZM100.914 38.2757L75.5 13.5V38.2757H100.914Z" fill="white"/>
</svg>
